:FULLY-SPECIFIED
:FORCE-ALL-JOINTS-BE-3DOF
:DEGREES
3058
root -1.68837 15.9793 -34.4083 7.50188 7.1689 1.05224
lfemur -33.2436 3.52503 -2.29662
ltibia 63.7896 -0 0
lfoot -7.74014 2.08024 0.499758
ltoes -35.9668 0 0
rfemur -36.3724 -7.38055 25.0342
rtibia 59.4523 -0 0
rfoot -18.7108 -28.5266 0.0384653
rtoes -6.26064 0 0
lowerback 12.4085 -0.0563772 -1.64598
upperback -1.22826 -0.183777 1.70384
thorax -8.30625 0.0332548 2.83276
lowerneck 3.96425 -10.0662 -12.3611
upperneck -3.30519 -13.8193 9.94403
head -0.0589406 -6.96775 5.15762
lclavicle -2.22639e-14 1.63003e-14 0
lhumerus 16.8458 -47.0542 86.4991
lradius 65.8974 -0 0
lwrist -7.27151 0 0
lhand -28.4708 31.3333 0.00268746
lfingers 7.12502 -0 0
lthumb -1.84063 61.3061 0.00258648
rclavicle -2.22639e-14 1.63003e-14 0
rhumerus 28.546 51.1748 -44.8794
rradius 101.799 -0 0
rwrist -42.9888 0 0
rhand -4.70701 -25.5928 -0.0589216
rfingers 7.12502 -0 0
rthumb 21.0769 -54.5001 -0.064216
3059
root -1.66774 15.9792 -34.3746 7.40275 7.66253 1.04395
lfemur -32.9636 3.41929 -2.39611
ltibia 63.1026 -0 0
lfoot -8.26098 1.70162 0.48963
ltoes -36.5241 0 0
rfemur -36.1024 -7.17724 24.7706
rtibia 59.3914 -0 0
rfoot -18.6494 -28.3327 0.0365645
rtoes -6.76127 0 0
lowerback 12.3509 -0.0306084 -1.58216
upperback -1.23733 -0.140022 1.69202
thorax -8.28429 0.0509495 2.77439
lowerneck 3.86334 -9.92093 -12.2567
upperneck -3.17218 -13.616 9.82471
head -0.0387166 -6.86364 5.11797
lclavicle -2.22639e-14 1.63003e-14 0
lhumerus 15.4263 -47.3086 87.1455
lradius 66.1889 -0 0
lwrist -7.01887 0 0
lhand -28.4603 31.5167 0.00294975
lfingers 7.12502 -0 0
lthumb -1.83045 61.4896 0.00284015
rclavicle -2.22639e-14 1.63003e-14 0
rhumerus 26.3025 51.8044 -46.3217
rradius 102.431 -0 0
rwrist -42.6362 0 0
rhand -4.73238 -25.4714 -0.0592312
rfingers 7.12502 -0 0
rthumb 21.0525 -54.3809 -0.0643789
3060
root -1.64628 15.9794 -34.3397 7.30566 8.11514 1.03258
lfemur -32.6981 3.31728 -2.5017
ltibia 62.4001 -0 0
lfoot -8.78028 1.32886 0.475995
ltoes -37.0772 0 0
rfemur -35.8328 -6.96909 24.5129
rtibia 59.3366 -0 0
rfoot -18.5927 -28.1388 0.0344448
rtoes -7.26422 0 0
lowerback 12.2949 -0.002773 -1.51707
upperback -1.24677 -0.0934657 1.67961
thorax -8.26369 0.0699555 2.71394
lowerneck 3.76079 -9.77123 -12.1494
upperneck -3.03884 -13.4065 9.70333
head -0.0188157 -6.75649 5.07711
lclavicle -2.22639e-14 1.63003e-14 0
lhumerus 13.9993 -47.5276 87.7986
lradius 66.489 -0 0
lwrist -6.76222 0 0
lhand -28.4489 31.7005 0.00317922
lfingers 7.12502 -0 0
lthumb -1.81947 61.6735 0.00306216
rclavicle -2.22639e-14 1.63003e-14 0
rhumerus 23.9894 52.3778 -47.8423
rradius 103.064 -0 0
rwrist -42.2926 0 0
rhand -4.76326 -25.353 -0.0591752
rfingers 7.12502 -0 0
rthumb 21.0228 -54.2651 -0.0641509
3061
root -1.62376 15.98 -34.304 7.21092 8.52499 1.01827
lfemur -32.4477 3.21932 -2.61307
ltibia 61.684 -0 0
lfoot -9.29654 0.963109 0.458999
ltoes -37.6247 0 0
rfemur -35.5641 -6.7567 24.2619
rtibia 59.2882 -0 0
rfoot -18.5408 -27.9453 0.0321362
rtoes -7.7681 0 0
lowerback 12.2409 0.0270721 -1.45089
upperback -1.25655 -0.0442062 1.66662
thorax -8.24454 0.090233 2.65155
lowerneck 3.6569 -9.61746 -12.0395
upperneck -2.90558 -13.1913 9.58022
head 0.000697186 -6.64656 5.03513
lclavicle -2.22639e-14 1.63003e-14 0
lhumerus 12.5707 -47.7104 88.4542
lradius 66.7969 -0 0
lwrist -6.50223 0 0
lhand -28.4367 31.8842 0.00337126
lfingers 7.12502 -0 0
lthumb -1.80771 61.8572 0.00324806
rclavicle -2.22639e-14 1.63003e-14 0
rhumerus 21.6162 52.8905 -49.4335
rradius 103.696 -0 0
rwrist -41.9592 0 0
rhand -4.79963 -25.238 -0.0587358
rfingers 7.12502 -0 0
rthumb 20.9878 -54.153 -0.0635156
3062
root -1.59994 15.9811 -34.2676 7.11884 8.89035 1.00116
lfemur -32.2136 3.12572 -2.72992
ltibia 60.9562 -0 0
lfoot -9.80826 0.605503 0.438828
ltoes -38.1648 0 0
rfemur -35.2973 -6.54067 24.0183
rtibia 59.2463 -0 0
rfoot -18.4939 -27.7529 0.0296714
rtoes -8.27153 0 0
lowerback 12.1889 0.0588692 -1.38377
upperback -1.26666 0.0076566 1.65309
thorax -8.22689 0.111742 2.58737
lowerneck 3.55194 -9.46 -11.9271
upperneck -2.7728 -12.9708 9.45571
head 0.0197576 -6.53412 4.99215
lclavicle -2.22639e-14 1.63003e-14 0
lhumerus 11.147 -47.8562 89.108
lradius 67.1119 -0 0
lwrist -6.23958 0 0
lhand -28.4238 32.0671 0.00352165
lfingers 7.12502 -0 0
lthumb -1.79519 62.0403 0.00339376
rclavicle -2.22639e-14 1.63003e-14 0
rhumerus 19.1944 53.3385 -51.0856
rradius 104.326 -0 0
rwrist -41.6368 0 0
rhand -4.84145 -25.1266 -0.0578967
rfingers 7.12502 -0 0
rthumb 20.9475 -54.045 -0.062458
3063
root -1.57459 15.9829 -34.2308 7.02971 9.20947 0.981395
lfemur -31.9965 3.03679 -2.85194
ltibia 60.2183 -0 0
lfoot -10.314 0.257178 0.415702
ltoes -38.696 0 0
rfemur -35.033 -6.3216 23.7829
rtibia 59.2113 -0 0
rfoot -18.4524 -27.562 0.0270847
rtoes -8.77312 0 0
lowerback 12.1392 0.0925594 -1.31589
upperback -1.27708 0.0620233 1.63905
thorax -8.21083 0.13444 2.52154
lowerneck 3.44621 -9.29919 -11.8126
upperneck -2.64087 -12.7457 9.33013
head 0.0383019 -6.41945 4.94826
lclavicle -2.22639e-14 1.63003e-14 0
lhumerus 9.73441 -47.9646 89.7553
lradius 67.4332 -0 0
lwrist -5.97494 0 0
lhand -28.41 32.249 0.00362654
lfingers 7.12502 -0 0
lthumb -1.78193 62.2223 0.00349553
rclavicle -2.22639e-14 1.63003e-14 0
rhumerus 16.7372 53.7184 -52.7875
rradius 104.952 -0 0
rwrist -41.3267 0 0
rhand -4.88871 -25.0194 -0.0566431
rfingers 7.12502 -0 0
rthumb 20.902 -53.9415 -0.060965
